<?xml version="1.0" encoding="UTF-8"?>
<svg xmlns="http://www.w3.org/2000/svg" viewBox="0 0 533.89 849.89">
  <defs>
    <style>
      .d {
        fill: #fafafa;
      }

      .e {
        fill: #f7931e;
      }
    </style>
  </defs>
  <g id="a" data-name="Layer 4">
    <rect class="d" x="125.94" y="642.55" width="282.01" height="38.62"/>
    <rect class="d" x="125.94" y="726.91" width="282.01" height="38.62"/>
    <rect class="d" x="125.94" y="558.19" width="282.01" height="38.62"/>
    <rect class="d" x="186.63" y="811.28" width="160.64" height="38.62"/>
  </g>
  <g id="b" data-name="Layer 5">
    <g>
      <path class="e" d="M0,239.33c8.55,0,15.84-1.51,21.9-4.54,6.05-3.02,11.13-6.94,15.23-11.75,4.09-4.81,7.12-10.33,9.08-16.56,1.95-6.23,2.94-12.55,2.94-18.97V91.35c0-14.6,1.6-27.6,4.81-39,3.21-11.39,8.72-20.92,16.56-28.58,7.83-7.65,18.25-13.53,31.25-17.63,13-4.09,29.12-6.14,48.35-6.14h2.14V39c-20.3,0-34.82,3.66-43.54,10.95-8.73,7.3-13.09,21.29-13.09,41.94v82.27c0,23.51-3.12,41.67-9.35,54.49-6.24,12.82-15.05,22.8-26.44,29.92,11.39,7.13,20.21,17.1,26.44,29.92,6.23,12.82,9.35,30.99,9.35,54.49v82.27c0,20.65,4.36,34.63,13.09,41.94,8.72,7.3,23.24,10.95,43.54,10.95v39h-2.14c-19.23,0-35.35-1.96-48.35-5.88-13.01-3.92-23.42-9.8-31.25-17.63-7.84-7.84-13.36-17.45-16.56-28.85-3.21-11.4-4.81-24.4-4.81-39v-96.16c0-6.41-.99-12.73-2.94-18.97-1.96-6.23-4.99-11.75-9.08-16.56-4.1-4.81-9.17-8.72-15.23-11.75-6.06-3.02-13.36-4.54-21.9-4.54v-38.46Z"/>
      <path class="e" d="M533.89,277.8c-8.55,0-15.85,1.52-21.9,4.54-6.06,3.03-11.14,6.94-15.23,11.75-4.1,4.81-7.13,10.33-9.08,16.56-1.96,6.24-2.94,12.55-2.94,18.97v96.16c0,14.6-1.6,27.6-4.81,39-3.21,11.39-8.73,21.01-16.56,28.85-7.84,7.83-18.25,13.71-31.25,17.63-13,3.92-29.12,5.88-48.35,5.88h-2.14v-39c20.3,0,34.81-3.66,43.54-10.95,8.72-7.3,13.09-21.29,13.09-41.94v-82.27c0-23.51,3.11-41.67,9.35-54.49,6.23-12.82,15.04-22.79,26.44-29.92-11.4-7.12-20.22-17.1-26.44-29.92-6.24-12.82-9.35-30.99-9.35-54.49V91.89c0-20.65-4.37-34.63-13.09-41.94-8.73-7.3-23.24-10.95-43.54-10.95V0h2.14C403.01,0,419.12,2.05,432.12,6.14c13,4.1,23.41,9.98,31.25,17.63,7.83,7.66,13.36,17.19,16.56,28.58,3.21,11.4,4.81,24.4,4.81,39v96.16c0,6.41,.98,12.74,2.94,18.97,1.95,6.24,4.98,11.75,9.08,16.56,4.09,4.81,9.17,8.73,15.23,11.75,6.05,3.03,13.36,4.54,21.9,4.54v38.46Z"/>
    </g>
  </g>
  <g id="c" data-name="Layer 1 copy 3">
    <path class="e" d="M354.93,39.05V0H178.97V39.05s42.72,0,42.72,0V190.26h-19.06v39.05h19.06v130.53h0v40.35h36.84v77.9h-15.92v39.05h52.76v-39.05h-15.92v-77.9h36.84V229.31h14.97v-39.05h-14.97V39.05h38.63Zm-59.55,320.79h-15.92v-84.79h-20.92v84.79h-16.54V229.31h53.38v130.53Zm0-169.57h-53.38V39.05h53.38V190.26Z"/>
  </g>
</svg>